<svg width="200" height="98" viewBox="0 0 200 98" fill="none" xmlns="http://www.w3.org/2000/svg">
<g clip-path="url(#clip0_68_160)">
<path d="M3.962 24.51H2.87C2.296 24.51 2.03 24.524 1.61 24.58V23.978H0.728C0.77 23.67 0.784 23.432 0.784 22.97V22.228C0.784 21.78 0.77 21.528 0.728 21.206C1.148 21.248 1.456 21.262 2.156 21.262H3.92V21.178C3.92 20.758 3.906 20.478 3.85 20.212H5.516C5.46 20.492 5.446 20.73 5.446 21.164V21.262H6.874C7.602 21.262 7.98 21.248 8.428 21.206C8.4 21.514 8.386 21.78 8.386 22.214V22.914C8.386 23.334 8.4 23.6 8.428 23.894H7.644V24.58C7.224 24.524 6.972 24.51 6.412 24.51H5.334V25.14H6.622C7.126 25.14 7.392 25.126 7.728 25.084V26.316C7.392 26.274 7.196 26.26 6.622 26.26H5.334V26.96H7.168C7.756 26.96 8.022 26.946 8.386 26.89V28.248C8.036 28.206 7.742 28.192 7.168 28.192H1.904C1.4 28.192 1.008 28.206 0.658 28.248V26.89C1.022 26.946 1.302 26.96 1.904 26.96H3.962V26.26H2.562C1.988 26.26 1.778 26.274 1.428 26.316V25.084C1.764 25.126 2.058 25.14 2.562 25.14H3.962V24.51ZM2.87 23.376H3.962C3.948 23.054 3.934 22.942 3.892 22.746H5.404C5.362 22.942 5.348 23.068 5.334 23.376H6.412C6.692 23.376 6.86 23.376 7.07 23.362V22.466H2.142V23.362C2.394 23.376 2.534 23.376 2.87 23.376ZM2.688 28.794H6.594C7.07 28.794 7.378 28.78 7.7 28.752C7.658 29.102 7.644 29.396 7.644 29.984V31.748C7.644 32.364 7.658 32.658 7.714 33.008H6.188V32.574H3.024V33.162H1.47C1.54 32.77 1.554 32.448 1.554 31.916V30.054C1.554 29.564 1.54 29.172 1.498 28.752C1.82 28.78 2.184 28.794 2.688 28.794ZM3.024 29.97V31.328H6.188V29.97H3.024ZM8.946 21.206H10.528C10.472 21.57 10.458 21.948 10.458 22.662V28.332C10.458 29.158 10.472 29.452 10.528 29.816H8.946C9.002 29.41 9.016 29.116 9.016 28.318V22.69C9.016 21.92 9.002 21.598 8.946 21.206ZM11.438 20.324H13.076C13.006 20.702 12.978 21.178 12.978 22.018V31.356C12.978 32.658 12.558 32.98 10.864 32.98C10.528 32.98 10.29 32.966 9.562 32.924C9.478 32.322 9.38 31.944 9.17 31.468C9.996 31.552 10.43 31.594 10.752 31.594C11.396 31.594 11.522 31.524 11.522 31.16V22.06C11.522 21.206 11.508 20.786 11.438 20.324ZM17.192 20.464L18.97 20.562C18.802 21.038 18.732 21.402 18.466 23.264C18.368 23.852 18.312 24.328 18.284 24.664H18.326C18.354 24.58 18.354 24.58 18.41 24.356C18.55 23.866 18.914 23.18 19.292 22.69C20.062 21.738 20.93 21.262 21.952 21.262C22.904 21.262 23.744 21.71 24.346 22.522C25.046 23.46 25.354 24.594 25.354 26.246C25.354 28.948 24.094 30.964 21.742 32C21.028 32.322 20.048 32.602 18.998 32.784C18.718 31.986 18.564 31.678 18.172 31.132C19.572 30.978 20.384 30.768 21.238 30.334C22.862 29.508 23.604 28.178 23.604 26.05C23.604 24.034 22.932 22.914 21.728 22.914C21.196 22.914 20.706 23.152 20.216 23.656C19.124 24.79 18.452 26.512 18.452 28.178C18.452 28.248 18.452 28.346 18.452 28.472L16.772 28.5C16.786 28.416 16.786 28.346 16.786 28.318C16.786 28.262 16.786 28.178 16.786 28.052C16.772 27.646 16.744 26.61 16.744 26.33C16.744 25.196 16.828 23.642 16.94 22.676L17.15 20.94C17.178 20.702 17.192 20.646 17.192 20.464ZM35.252 32.392V32.448C34.93 32.406 34.636 32.392 34.048 32.392H30.548V32.994H29.022C29.064 32.56 29.078 32.224 29.078 31.594V28.164C28.812 28.178 28.7 28.192 28.476 28.22V26.89C28.784 26.932 29.064 26.946 29.61 26.946H29.764V22.676H29.694C29.204 22.676 28.924 22.69 28.574 22.732V21.402C28.868 21.444 29.162 21.458 29.694 21.458H29.764V21.36C29.764 20.828 29.75 20.562 29.694 20.296H31.248C31.178 20.604 31.164 20.856 31.164 21.36V21.458H33.628V21.36C33.628 20.842 33.614 20.59 33.558 20.296H35.056C35 20.59 34.986 20.842 34.986 21.36V21.458C35.602 21.458 35.812 21.444 36.134 21.402V22.732C35.784 22.69 35.616 22.676 34.986 22.676V26.946C35.644 26.946 35.91 26.932 36.204 26.876V28.22C35.84 28.178 35.616 28.164 35.084 28.164H34.258V29.144C34.258 29.326 34.314 29.368 34.538 29.368C34.776 29.368 34.874 29.34 34.93 29.256C34.986 29.158 35.042 28.864 35.056 28.5C35.462 28.654 35.672 28.71 36.148 28.78C36.05 29.536 35.924 29.956 35.742 30.166C35.532 30.39 35.224 30.474 34.468 30.474C33.278 30.474 33.04 30.334 33.04 29.62V28.164H32.648C32.606 28.836 32.578 29.06 32.438 29.466C32.214 30.152 31.948 30.558 31.416 31.006C31.192 30.74 30.996 30.586 30.52 30.306V31.09H34.09C34.678 31.09 34.944 31.076 35.252 31.034V31.678C36.47 30.194 36.96 28.22 37.072 24.51H36.792C36.12 24.51 35.91 24.524 35.63 24.566V23.068C35.966 23.124 36.218 23.138 36.806 23.138H37.114C37.142 22.508 37.142 22.102 37.142 21.584C37.142 20.996 37.128 20.716 37.058 20.366H38.71C38.654 20.702 38.626 20.968 38.626 21.5C38.626 22.2 38.612 22.606 38.598 23.138H39.956C40.586 23.138 40.936 23.124 41.3 23.082C41.272 23.432 41.258 23.586 41.23 24.72C41.16 27.562 40.936 30.558 40.712 31.594C40.474 32.686 40.082 32.952 38.724 32.952C38.472 32.952 38.29 32.938 37.898 32.924C37.856 32.35 37.772 31.972 37.562 31.412C37.982 31.496 38.374 31.538 38.654 31.538C39.2 31.538 39.27 31.412 39.438 30.348C39.62 29.172 39.76 26.834 39.76 25.084C39.76 24.944 39.76 24.762 39.76 24.51H38.556C38.444 26.596 38.262 28.122 38.024 29.158C37.786 30.152 37.394 31.16 36.96 31.93C36.708 32.378 36.512 32.644 36.036 33.218C35.658 32.77 35.532 32.644 35.252 32.392ZM30.52 28.164V30.054C30.912 29.76 31.178 29.354 31.318 28.822C31.36 28.64 31.374 28.528 31.416 28.164H30.52ZM31.164 22.676V23.362H33.628V22.676H31.164ZM31.164 24.482V25.168H33.628V24.482H31.164ZM31.164 26.232V26.946H33.628V26.232H31.164ZM49 25.014C49.924 25.014 50.666 25.756 50.666 26.68C50.666 27.604 49.924 28.346 49 28.346C48.076 28.346 47.334 27.604 47.334 26.68C47.334 25.756 48.076 25.014 49 25.014ZM63.336 29.074V24.664C62.566 25.308 62.034 25.686 61.236 26.148V28.92C61.236 29.256 61.278 29.326 61.502 29.326C61.74 29.326 61.824 29.256 61.866 29.018C61.922 28.668 61.964 28.094 61.978 27.142C62.412 27.478 62.72 27.66 63.056 27.8C62.944 30.264 62.72 30.656 61.446 30.656C60.158 30.656 59.948 30.474 59.948 29.41V23.04C59.948 22.284 59.934 22.074 59.892 21.724H61.306C61.25 22.102 61.236 22.452 61.236 23.068V24.622C61.908 24.104 62.23 23.81 62.636 23.32L63.336 24.398C63.336 23.754 63.322 23.39 63.294 23.04C63.644 23.082 63.854 23.082 64.484 23.082H64.918C65.114 22.676 65.226 22.382 65.338 22.046H63.938C63.224 22.046 62.888 22.06 62.454 22.116V20.59C62.86 20.646 63.294 20.674 64.036 20.674H67.844C68.586 20.674 69.076 20.646 69.454 20.59V22.116C69.034 22.06 68.684 22.046 67.942 22.046H66.78C66.654 22.382 66.5 22.774 66.36 23.082H67.536C68.264 23.082 68.586 23.068 68.894 23.04C68.866 23.446 68.852 23.768 68.852 24.272V28.976C68.852 29.452 68.866 29.928 68.894 30.362C68.53 30.334 68.096 30.32 67.69 30.32H67.382C68.138 31.076 68.74 31.454 69.818 31.902C69.51 32.308 69.202 32.784 68.964 33.246C67.704 32.518 67.06 32.014 66.192 31.062L67.256 30.32H64.484L65.548 31.076C64.624 32.028 63.938 32.532 62.51 33.274C62.216 32.826 61.866 32.378 61.516 32.042C62.986 31.482 63.504 31.174 64.344 30.32C63.868 30.32 63.672 30.334 63.294 30.362C63.322 29.886 63.336 29.522 63.336 29.074ZM64.736 24.286V25.126H67.424V24.286H64.736ZM64.736 26.302V27.142H67.424V26.302H64.736ZM64.736 28.262V29.13H67.424V28.262H64.736ZM59.136 23.544V31.482C59.136 32.224 59.15 32.63 59.206 33.162H57.624C57.68 32.616 57.708 32.182 57.708 31.482V27.534C57.708 26.89 57.722 26.428 57.75 25.868C57.386 26.54 57.19 26.848 56.798 27.352C56.588 26.666 56.434 26.316 56.112 25.728C56.784 24.958 57.288 24.132 57.792 22.97C58.226 21.962 58.506 21.038 58.646 20.156L60.172 20.576C60.102 20.758 59.99 21.108 59.934 21.346C59.682 22.172 59.514 22.634 59.136 23.544ZM73.57 25.196H72.94C72.408 25.196 72.198 25.21 71.932 25.252V24.454C71.61 24.706 71.498 24.79 71.12 25.042C70.882 24.398 70.686 24.02 70.35 23.572C71.876 22.676 72.814 21.738 73.542 20.366H75.138C75.726 21.402 76.538 22.158 77.714 22.788C77.336 23.25 77.084 23.698 76.902 24.188L76.678 24.034V25.238C76.384 25.21 76.188 25.196 75.712 25.196H75.012V26.204H76.132C76.678 26.204 76.93 26.19 77.224 26.148V27.674C76.902 27.618 76.636 27.604 76.132 27.604H75.012V31.622C75.012 32.294 74.9 32.602 74.606 32.784C74.312 32.966 73.976 33.036 73.346 33.036C73.136 33.036 72.954 33.036 72.478 33.008C72.45 32.364 72.38 32.028 72.198 31.468C72.562 31.538 72.884 31.58 73.122 31.58C73.5 31.58 73.57 31.538 73.57 31.286V27.604H71.974C71.414 27.604 71.162 27.618 70.798 27.674V26.134C71.148 26.19 71.4 26.204 71.974 26.204H73.57V25.196ZM72.954 23.894H75.768C76.104 23.894 76.258 23.894 76.454 23.88C75.53 23.18 75.026 22.648 74.368 21.724C73.71 22.746 73.36 23.166 72.59 23.894C72.842 23.894 72.842 23.894 72.954 23.894ZM80.794 28.374V21.92C80.794 21.122 80.766 20.702 80.71 20.282H82.39C82.32 20.772 82.306 21.206 82.306 21.92V28.066C82.754 27.968 83.132 27.87 83.482 27.73L83.608 29.34C83.314 29.368 83.314 29.368 82.376 29.578L82.306 29.592V31.356C82.306 32.112 82.32 32.686 82.39 33.162H80.71C80.766 32.7 80.794 32.182 80.794 31.398V29.886L78.778 30.292C78.288 30.39 77.882 30.502 77.616 30.614L77.322 29.004C77.686 28.976 77.896 28.948 78.554 28.822L80.794 28.374ZM71.61 28.122L72.954 28.43C72.772 29.382 72.66 29.858 72.464 30.53C72.212 31.426 72.072 31.748 71.68 32.462C71.274 32 70.938 31.748 70.434 31.482C70.812 30.908 70.938 30.656 71.134 30.124C71.4 29.424 71.484 29.018 71.61 28.122ZM77.462 31.454L76.146 31.944C75.908 30.488 75.726 29.732 75.306 28.444L76.496 28.08C76.93 29.284 77.21 30.292 77.462 31.454ZM80.668 23.46L79.716 24.608C78.876 23.53 78.33 22.97 77.378 22.186L78.33 21.136C79.38 22.018 79.66 22.284 80.668 23.46ZM80.346 26.876L79.352 27.982C78.54 26.918 78.106 26.47 77.056 25.616L77.994 24.622C78.932 25.364 79.562 25.966 80.346 26.876ZM93.268 24.496V21.962C93.268 21.178 93.254 20.814 93.17 20.282H94.92C94.85 20.758 94.822 21.206 94.822 21.962V24.496H95.816C96.572 24.496 97.048 24.468 97.51 24.412V26.022C96.964 25.966 96.474 25.938 95.802 25.938H94.822V31.048C94.822 32.014 94.85 32.588 94.92 33.162H93.17C93.24 32.602 93.268 32.07 93.268 31.048V25.938H92.4C91.784 25.938 91.182 25.966 90.692 26.022V24.412C91.14 24.468 91.644 24.496 92.386 24.496H93.268ZM85.33 22.004V20.632C85.68 20.688 85.96 20.702 86.534 20.702H88.956C89.516 20.702 89.782 20.688 90.146 20.632V22.004C89.754 21.962 89.488 21.948 88.956 21.948H86.534C86.03 21.948 85.68 21.962 85.33 22.004ZM84.742 24.006V22.578C85.092 22.634 85.414 22.662 85.932 22.662H89.53C90.076 22.662 90.384 22.648 90.72 22.592V23.992C90.398 23.95 90.118 23.936 89.53 23.936H85.918C85.456 23.936 85.148 23.95 84.742 24.006ZM85.344 25.952V24.622C85.638 24.65 85.806 24.664 86.268 24.664H89.236C89.712 24.664 89.838 24.664 90.132 24.622V25.952C89.81 25.91 89.684 25.91 89.236 25.91H86.268C85.806 25.91 85.666 25.91 85.344 25.952ZM85.344 27.94V26.61C85.596 26.638 85.778 26.652 86.268 26.652H89.236C89.712 26.652 89.838 26.652 90.132 26.61V27.94C89.852 27.912 89.67 27.898 89.208 27.898H86.254C85.806 27.898 85.638 27.912 85.344 27.94ZM86.814 32.532V33.162H85.33C85.386 32.756 85.4 32.364 85.4 31.818V29.704C85.4 29.256 85.386 28.99 85.344 28.612C85.61 28.64 85.806 28.654 86.324 28.654H89.334C89.768 28.654 89.978 28.64 90.244 28.612C90.202 28.934 90.188 29.2 90.188 29.69V31.748C90.188 32.28 90.202 32.616 90.258 32.966H88.76V32.532H86.814ZM86.786 29.928V31.286H88.774V29.928H86.786ZM101.794 22.326H101.066C100.52 23.11 100.156 23.53 99.54 24.104C99.274 23.698 98.938 23.32 98.546 22.956C99.232 22.382 99.61 21.976 100.03 21.36C100.422 20.8 100.604 20.408 100.702 20.03L102.172 20.38C102.13 20.464 102.018 20.688 101.822 21.066H103.572C104.174 21.066 104.552 21.038 104.888 20.982V22.2C105.532 21.444 105.938 20.73 106.148 19.988L107.604 20.366C107.464 20.646 107.464 20.646 107.254 21.066H109.914C110.572 21.066 110.978 21.038 111.342 20.982V22.396C110.936 22.34 110.53 22.326 109.914 22.326H108.822C109.116 22.788 109.172 22.858 109.354 23.208L108.43 23.516C109.144 23.516 109.41 23.502 109.774 23.474C109.746 23.852 109.732 24.286 109.732 25V27.618C109.732 28.402 109.746 28.78 109.788 29.102C109.34 29.074 109.074 29.06 108.304 29.06H107.954V29.662H109.718C110.474 29.662 110.95 29.634 111.342 29.578V31.006C110.88 30.95 110.376 30.922 109.718 30.922H107.954V31.902C107.954 32.406 107.982 32.756 108.038 33.162H106.414C106.47 32.812 106.498 32.448 106.498 31.902V30.922H103.684C103.39 31.664 102.984 32.168 102.326 32.56C101.724 32.91 101.192 33.092 100.114 33.316C99.89 32.868 99.694 32.588 99.232 32.042C100.324 31.916 100.492 31.888 100.912 31.762C101.528 31.566 101.878 31.328 102.158 30.922H100.31C99.694 30.922 99.218 30.95 98.728 31.006V29.578C99.148 29.634 99.61 29.662 100.31 29.662H102.48C102.494 29.438 102.494 29.34 102.494 29.06H101.906C101.15 29.06 100.884 29.074 100.422 29.102C100.464 28.752 100.478 28.416 100.478 27.702V24.482C100.478 24.062 100.464 23.796 100.45 23.474C100.758 23.502 100.982 23.516 101.57 23.516H102.368C102.172 22.998 102.046 22.746 101.794 22.326ZM103.712 22.326H103.194C103.418 22.662 103.502 22.816 103.712 23.222L102.718 23.516H105.252C104.958 23.208 104.748 23.054 104.3 22.788C104.51 22.592 104.58 22.536 104.748 22.354C104.468 22.34 104.118 22.326 103.712 22.326ZM105.588 23.516H108.038C107.786 22.97 107.688 22.788 107.38 22.326H106.526C106.19 22.816 105.91 23.18 105.588 23.516ZM103.922 29.662H106.498V29.06H103.95C103.95 29.326 103.95 29.41 103.922 29.662ZM101.906 24.552V25.042H108.29V24.552H101.906ZM101.906 26.008V26.526H108.29V26.008H101.906ZM101.906 27.492V28.01H108.29V27.492H101.906ZM116.27 20.394L118.062 20.576C117.978 20.842 117.978 20.842 117.838 21.514C117.768 21.85 117.698 22.13 117.544 22.746C118.51 22.648 119.238 22.522 119.784 22.354L119.826 23.964C119.672 23.978 119.644 23.978 119.378 24.034C118.874 24.118 118.02 24.216 117.152 24.286C116.746 25.686 116.242 27.016 115.612 28.346C115.29 29.032 115.164 29.284 114.632 30.264C114.45 30.6 114.45 30.6 114.366 30.768L112.756 29.872C113.246 29.228 113.638 28.598 114.114 27.632C114.66 26.512 114.898 25.938 115.43 24.328C114.8 24.342 114.716 24.342 114.548 24.342C114.366 24.342 114.282 24.342 113.988 24.328L113.246 24.314V22.718C113.75 22.816 114.282 22.844 115.136 22.844C115.304 22.844 115.542 22.844 115.85 22.83C116.088 21.836 116.242 20.996 116.27 20.394ZM125.23 24.034L124.474 25.476C123.256 24.664 122.01 24.062 120.442 23.516L121.282 22.158C122.934 22.788 123.984 23.278 125.23 24.034ZM125.174 30.348L124.404 31.916C123.9 31.314 123.088 30.656 122.262 30.18C122.276 30.306 122.29 30.404 122.29 30.46C122.29 30.978 122.052 31.58 121.688 31.944C121.198 32.448 120.358 32.728 119.364 32.728C117.516 32.728 116.312 31.804 116.312 30.376C116.312 28.962 117.558 27.968 119.336 27.968C119.756 27.968 120.05 27.996 120.638 28.094C120.596 27.45 120.568 26.904 120.568 26.484C120.568 25.938 120.596 25.532 120.68 25.07L122.304 25.154C122.164 25.672 122.136 25.994 122.136 26.568C122.136 27.128 122.164 27.688 122.262 28.486C123.27 28.934 123.41 29.004 124.474 29.774C124.684 29.914 124.74 29.97 124.964 30.152C125.076 30.264 125.076 30.264 125.174 30.348ZM120.694 29.578C120.204 29.41 119.868 29.354 119.434 29.354C118.524 29.354 117.936 29.732 117.936 30.32C117.936 30.894 118.44 31.23 119.308 31.23C120.26 31.23 120.722 30.838 120.722 30.054C120.722 29.914 120.694 29.578 120.694 29.578ZM130.018 21.99L130.83 20.576C131.796 21.108 134.47 21.906 136.052 22.13L135.478 23.74C133.084 23.194 131.614 22.732 130.018 21.99ZM128.898 23.222L130.648 23.32C130.438 24.09 130.2 25.392 130.018 26.764C129.99 26.96 129.99 26.96 129.948 27.17L129.976 27.198C130.788 26.414 132.524 25.868 134.218 25.868C136.598 25.868 138.166 27.044 138.166 28.836C138.166 29.858 137.62 30.894 136.724 31.538C135.814 32.196 134.652 32.49 133.028 32.49C131.824 32.49 131.054 32.392 129.458 32C129.444 31.132 129.416 30.852 129.248 30.194C130.62 30.67 131.824 30.894 133.014 30.894C134.988 30.894 136.36 30.068 136.36 28.878C136.36 27.94 135.478 27.38 133.994 27.38C132.748 27.38 131.446 27.758 130.508 28.402C130.256 28.584 130.172 28.668 129.878 29.004L128.114 28.948C128.156 28.696 128.156 28.64 128.226 28.108C128.338 27.24 128.562 25.686 128.814 24.034C128.87 23.698 128.884 23.53 128.898 23.222Z" fill="#4D4D4D"/>
<path d="M5.97015 47.3767V42.1528L11.7271 69.1606H17.946L23.7385 42.1528V69.1251H29.7086V37H20.4691L14.9254 62.3021L9.31059 37H0V69.1962H5.97015V47.3767Z" fill="#F5AE17"/>
<path d="M67.1291 56.2971H67.1646C67.1646 54.8401 67.3423 53.6318 67.7332 52.6723C68.4794 50.8955 69.8654 50.0071 71.891 50.0071C73.5256 50.0071 74.6273 50.6112 75.2314 51.8195C75.5512 52.4946 75.6934 53.4541 75.6934 54.6979V69.1613H81.7701V53.1343C81.7701 50.1492 81.0239 48.017 79.5313 46.7377C78.0388 45.4584 76.1198 44.7832 73.7744 44.7832C71.891 44.7832 70.3629 45.2807 69.1191 46.2402C68.4439 46.7733 67.7332 47.6617 66.9514 48.8699V45.4229H61.23V69.1968H67.1291V56.2971Z" fill="#F5AE17"/>
<path d="M45.3446 69.1984C49.2536 69.1984 52.1676 67.9902 54.0866 65.6092C56.0056 63.2283 56.9651 60.3498 56.9651 57.0094C56.9651 53.6689 56.0056 50.8615 54.0866 48.445C52.1676 46.0286 49.2536 44.8203 45.3446 44.8203C41.4356 44.8203 38.5216 46.0286 36.6026 48.445C34.6836 50.8615 33.7241 53.74 33.7241 57.0094C33.7241 60.2787 34.6836 63.2283 36.6026 65.6092C38.5216 67.9902 41.4356 69.1984 45.3446 69.1984ZM41.329 51.7144C42.2884 50.4706 43.6033 49.8665 45.3446 49.8665C47.0859 49.8665 48.4007 50.5062 49.3247 51.7144C50.2486 52.9227 50.7106 54.6995 50.7106 57.0094C50.7106 59.3192 50.2486 61.0605 49.3247 62.3043C48.4007 63.5481 47.0503 64.1522 45.3446 64.1522C43.6388 64.1522 42.2529 63.5126 41.329 62.3043C40.405 61.0961 39.943 59.2837 39.943 57.0094C39.943 54.735 40.405 52.9582 41.329 51.7144Z" fill="#F5AE17"/>
<path d="M127.257 44.9961L122.566 61.7338L117.626 44.9961H111.017L118.977 67.704L119.332 68.6635C119.332 68.6635 119.261 69.3031 118.941 70.0494H118.977C118.693 70.7957 118.373 71.2932 118.017 71.5419C117.662 71.7907 117.2 71.9684 116.667 72.0039C116.134 72.075 115.601 72.1105 114.997 72.075H111.017V76.7658C111.656 76.8014 115.352 76.8369 115.672 76.8369H116.951C119.581 76.8369 121.322 76.3038 122.211 75.2733C123.064 74.2783 124.201 71.7196 125.622 67.704C125.622 67.704 125.693 67.4552 125.764 67.3131H125.8L133.582 44.9961H127.257Z" fill="#F5AE17"/>
<path d="M172.281 69.1979C175.763 69.1979 178.5 68.0608 180.454 65.7864C181.698 64.365 182.409 62.9435 182.551 61.5576H176.51C176.19 62.2328 175.834 62.7658 175.408 63.1567C174.662 63.8674 173.667 64.2228 172.423 64.2228C171.286 64.2228 170.291 63.9385 169.473 63.3699C168.123 62.4104 167.412 60.8113 167.341 58.4659H182.871C182.871 56.4758 182.835 54.9122 182.693 53.8461C182.444 52.0338 181.84 50.3991 180.952 49.0487C179.957 47.4495 178.713 46.3124 177.22 45.6016C175.692 44.8909 174.022 44.5 172.103 44.5C168.94 44.5 166.346 45.5661 164.321 47.6983C162.33 49.866 161.335 52.9577 161.335 57.0089C161.335 61.3088 162.437 64.4005 164.64 66.355C166.844 68.274 169.402 69.2335 172.281 69.2335V69.1979ZM168.869 50.8255H168.905C169.687 49.9726 170.753 49.5107 172.103 49.5107C173.382 49.5107 174.413 49.9371 175.266 50.7544C176.119 51.5718 176.616 52.78 176.687 54.4147H167.448C167.625 52.8866 168.123 51.6784 168.869 50.8255Z" fill="#5D80FF"/>
<path d="M97.0732 69.1979C100.556 69.1979 103.292 68.0608 105.247 65.7864C106.49 64.365 107.201 62.9435 107.343 61.5576H101.302C100.982 62.2328 100.627 62.7658 100.2 63.1567C99.4542 63.8674 98.4591 64.2228 97.2153 64.2228C96.0782 64.2228 95.0831 63.9385 94.2658 63.3699C92.9154 62.4104 92.2047 60.8113 92.1336 58.4659H107.663C107.663 56.4758 107.628 54.9122 107.485 53.8461C107.237 52.0338 106.633 50.3991 105.744 49.0487C104.749 47.4495 103.505 46.3124 102.013 45.6016C100.485 44.8909 98.8145 44.5 96.8955 44.5C93.7328 44.5 91.1386 45.5661 89.113 47.6983C87.123 49.866 86.1279 52.9577 86.1279 57.0089C86.1279 61.3088 87.2296 64.4005 89.4328 66.355C91.6361 68.274 94.1947 69.2335 97.0732 69.2335V69.1979ZM93.6617 50.8255H93.6972C94.479 49.9726 95.5451 49.5107 96.8955 49.5107C98.1748 49.5107 99.2054 49.9371 100.058 50.7544C100.911 51.5718 101.409 52.78 101.48 54.4147H92.2402C92.4179 52.8866 92.9154 51.6784 93.6617 50.8255Z" fill="#F5AE17"/>
<path d="M199.467 44.4629H199.183C197.406 44.4629 195.949 44.9604 194.848 45.9554C194.172 46.5596 193.355 47.6612 192.467 49.2603V45.067H186.816V69.2319H192.787V57.718C192.787 55.7991 193 54.3421 193.462 53.4181H193.497C194.315 51.7479 195.914 50.9306 198.295 50.9306H199.005C199.29 50.9306 199.645 50.9661 200 51.0016V44.534H199.467V44.4629Z" fill="#5D80FF"/>
<path d="M157.534 67.7023C157.534 67.3114 157.569 66.956 157.569 66.5295V44.9944H151.813V48.2637C150.924 46.6646 149.751 45.563 148.33 44.9588C147.477 44.6035 146.482 44.4258 145.345 44.4258C142.253 44.4258 139.872 45.563 138.202 47.8728C136.532 50.1472 135.679 52.9901 135.679 56.3661C135.679 59.7421 136.532 62.6561 138.273 64.6816C139.801 66.4585 141.756 67.3824 144.137 67.6312H146.056C147.548 67.5246 148.899 67.2047 149.894 66.4585C150.533 65.961 151.173 65.2502 151.741 64.2552V65.7122C151.741 66.4585 151.706 67.0626 151.635 67.6667C151.528 68.8039 151.315 69.6923 151.031 70.2964C150.533 71.2915 149.68 71.9666 148.508 72.322L128.216 72.4642L126.262 76.4087L192.964 74.3121V72.0022L156.574 72.2509C157.108 71.0782 157.427 69.5502 157.534 67.7023ZM150.391 61.2346C149.432 62.2652 148.259 62.7982 146.873 62.7982C144.776 62.7982 143.355 61.8387 142.537 59.9197C142.111 58.8892 141.862 57.7165 141.862 56.4016H141.827C141.827 54.9091 142.04 53.6298 142.466 52.5992C143.248 50.6447 144.705 49.6497 146.766 49.6497C148.294 49.6497 149.503 50.2182 150.427 51.3199C151.351 52.4571 151.813 54.0917 151.813 56.2239C151.813 58.4983 151.351 60.204 150.391 61.2346Z" fill="#5D80FF"/>
<path d="M0 81.2802L107.854 76.8025V72.0762H0V81.2802Z" fill="#F5AE17"/>
</g>
<defs>
<clipPath id="clip0_68_160">
<rect width="200" height="97.2802" fill="white"/>
</clipPath>
</defs>
</svg>
